<?xml version="1.0" encoding="UTF-8"?>
<svg id="HONDA" xmlns="http://www.w3.org/2000/svg" viewBox="0 0 805 187">
  <defs>
    <style>
      .cls-1 {
        fill: #231815;
        fill-rule: evenodd;
      }
    </style>
  </defs>
  <path id="H" class="cls-1" d="M50.05,133.64l-.03-10.65s6.53-.77,10.57-1.26c4.04-.5,5.42-3.09,5.42-7.65v-40.49c0-4.07-1.01-6.9-5.3-7.55-1.5-.23-10.65-1.24-10.65-1.24v-10.94h63.82l-.06,10.87s-9.52,1.07-10.78,1.26c-3.26,.45-5.09,2.56-5.12,7.13v12.65h49.2v-12.37c0-3.96-1.17-6.94-4.87-7.43s-11.11-1.34-11.11-1.34l.02-10.78h63.83l-.05,10.88s-7.62,.89-10.99,1.31c-3.37,.42-4.93,3.01-4.92,7.28,0,.75-.02,36.95,0,41.53,.02,4.58,2.58,6.29,4.68,6.57s11.3,1.3,11.3,1.3l-.02,10.91h-63.82l.06-10.94s9.72-1.08,10.96-1.32c4.36-.88,4.96-3.84,4.94-7.46s0-12.19,0-12.19h-49.2s-.04,7.4,0,12.78,2.56,6.9,5.01,7.24c3.09,.4,10.94,1.27,10.94,1.27v10.63H50.05Z"/>
  <path class="cls-1" d="M263.44,50.8c-45.05,0-65.21,17.57-65.21,42.55s20.16,43.18,65.21,43.18,65.03-17.4,65.03-43.18-20.16-42.55-65.03-42.55Zm-.09,70.46c-18.11,0-28.46-6.67-28.46-27.64s10.34-27.5,28.46-27.5,28.46,6.8,28.46,27.5-10.35,27.64-28.46,27.64Z"/>
  <path id="N" class="cls-1" d="M332.03,133.65v-10.9s9.55-1.06,11.05-1.32c3.61-.63,4.91-3.02,4.9-6.79v-41.63c0-4.06-1.78-6.31-5.66-6.74-1.25-.14-10.3-1.18-10.3-1.18v-11.22s55.48-.04,56.33-.04c3.02,.01,5.08,1.46,6.67,3.49,.32,.41,42.07,55.58,42.07,55.58,0,0,.02-35.68,0-39.44,0-3.76-1.32-6.56-5.15-7.03-1.19-.15-10.8-1.28-10.8-1.28v-11.29h51.06v11.2s-8.95,.97-10.82,1.26c-4.39,.68-5.11,3.65-5.14,6.81-.02,3.17,0,60.51,0,60.51h-40.04c-2.66,0-5.29-1.22-6.73-3.06-.95-1.22-42.34-55.98-42.34-55.98,0,0-.02,36.93,0,40.59,.02,3.66,1.8,5.92,5.05,6.31,3.24,.39,10.91,1.25,10.91,1.25v10.9h-51.06Z"/>
  <path id="D" class="cls-1" d="M558.41,133.37l-79.93-.06,.03-10.48s8.1-.95,11.4-1.39c3.29-.44,4.58-3.24,4.57-6.34,0-3.1,.04-38.88,.04-42.51,0-3.63-1.67-5.73-5.22-6.24-3.56-.51-10.91-1.25-10.91-1.25v-11.21h80.01c36.31,0,52,17.66,52,38.72,0,23.37-15.7,40.76-52,40.76h0Zm15.34-39.69c0-20.07-8.11-24.54-27.56-24.54h-20.42v48.81h20.42c19.45,0,27.56-4.02,27.56-24.28Z"/>
  <path id="A" class="cls-1" d="M655.19,133.67h-51.06v-10.89l10.85-1.44c3.81-.49,5.33-3.53,5.76-4.21,.44-.68,24.91-40.32,27.04-43.87s-.12-6.26-2.91-6.76c-1.95-.35-14.13-1.6-14.13-1.6v-11.03h62.3c3.9,.11,6.31,4.49,6.31,4.49l35.8,54.76c2.89,4.42,5.1,7.65,8.65,8.18,3.54,.52,11.15,1.4,11.15,1.4l.05,10.95h-68.99l.06-10.82s4.54-.6,8.7-1.14c4.16-.54,7.65-2.34,4.21-7.4-3.45-5.05-3.36-5.01-3.36-5.01l-48.9,.11s-1.52,2.29-3.89,5.96c-2.37,3.67,.13,5.98,3.64,6.42l8.75,1.09v10.81h0Zm.41-38.7l30.8,.16-15.58-24.63-15.22,24.47Z"/>
</svg>