<?xml version="1.0" encoding="UTF-8"?><svg id="_イヤー_2" xmlns="http://www.w3.org/2000/svg" viewBox="0 0 240 64"><defs><style>.cls-1{fill:none;}.cls-2{fill:#fff;fill-rule:evenodd;}</style></defs><g id="_ンテンツ"><g><g><path class="cls-2" d="M24.78,8.09c-.59-1.33-1.38-2.48-2.38-3.47-1-.98-2.18-1.77-3.53-2.35-1.35-.58-2.8-.87-4.33-.88l-13.25-.04c-.82,0-1.24,.4-1.24,1.21L0,60.72c0,.81,.41,1.21,1.23,1.22l7.86,.02c.82,0,1.24-.4,1.24-1.21l.02-23.45h4.15c1.53,.02,2.97-.27,4.33-.84,1.35-.57,2.53-1.35,3.53-2.33,1-.98,1.8-2.13,2.39-3.45,.59-1.32,.89-2.74,.89-4.24V12.33c.02-1.5-.28-2.91-.86-4.24ZM15.31,25.98c0,.58-.21,1.07-.62,1.47-.41,.4-.91,.6-1.5,.6h-2.83l.02-17.4h2.83c.59,.01,1.09,.21,1.5,.62,.41,.4,.62,.9,.62,1.47v13.24Z"/><path class="cls-2" d="M44.29,60.85c0,.81-.41,1.21-1.24,1.21l-7.86-.02c-.82,0-1.24-.41-1.23-1.22l.06-58.16c0-.81,.41-1.21,1.24-1.21l7.86,.02c.82,0,1.24,.41,1.23,1.22l-.06,58.15h0Z"/><path class="cls-2" d="M78.16,52.48c.82,0,1.24,.41,1.24,1.22v7.27c0,.81-.42,1.21-1.24,1.21l-23.4-.07c-.35,0-.63-.12-.84-.35-.21-.23-.25-.52-.13-.87l12.32-49.64-11.3-.03c-.82,0-1.24-.41-1.23-1.22V2.73c0-.81,.42-1.21,1.24-1.21l23.22,.07c.35,0,.63,.13,.84,.39,.21,.26,.25,.53,.13,.82l-12.32,49.64,11.48,.04h0Z"/><path class="cls-2" d="M111.94,52.58c.82,0,1.24,.41,1.24,1.22v7.27c0,.81-.42,1.21-1.24,1.21l-23.4-.07c-.35,0-.63-.12-.84-.35-.21-.23-.25-.52-.13-.87l12.32-49.64-11.3-.03c-.82,0-1.24-.41-1.23-1.22V2.83c0-.81,.42-1.21,1.24-1.21l23.22,.07c.35,0,.63,.13,.84,.39,.21,.26,.25,.53,.13,.82l-12.32,49.64,11.48,.04h0Z"/><path class="cls-2" d="M143.69,52.25c.82,0,1.24,.41,1.24,1.22v7.7c0,.81-.42,1.21-1.25,1.21l-19.16-.06c-.82,0-1.24-.41-1.24-1.22l.06-58.15c0-.81,.41-1.21,1.24-1.21l19.16,.06c.82,0,1.24,.41,1.24,1.22v7.7c0,.81-.42,1.21-1.25,1.21l-10.07-.03v12.46l8.73,.03c.82,0,1.24,.41,1.24,1.22v7.7c0,.81-.42,1.21-1.25,1.21l-8.74-.03-.02,17.74,10.07,.03h0Z"/><path class="cls-2" d="M183.2,61.28l-7.84-24.69c1.83-.92,3.3-2.22,4.42-3.92,1.12-1.7,1.68-3.61,1.68-5.75V12.82c.02-1.5-.28-2.91-.87-4.24-.59-1.33-1.38-2.48-2.38-3.47-1-.98-2.18-1.77-3.53-2.35-1.35-.58-2.8-.87-4.33-.88l-13.25-.04c-.82,0-1.24,.4-1.24,1.21l-.06,58.16c0,.81,.41,1.21,1.23,1.22l7.86,.02c.65,0,1.06-.28,1.24-.86l.02-21.55,6.43,21.22c.12,.35,.34,.64,.66,.87,.32,.23,.66,.35,1.02,.35l8.04,.03c.77,0,1.06-.4,.88-1.21Zm-12.06-34.83c0,.58-.21,1.07-.62,1.47-.41,.4-.91,.6-1.5,.6h-2.83l.02-17.4h2.83c.59,.01,1.09,.21,1.5,.62,.41,.41,.62,.9,.62,1.47v13.24Z"/><path class="cls-2" d="M202.93,61.34c0,.81-.41,1.21-1.24,1.21l-7.86-.02c-.82,0-1.24-.41-1.23-1.22l.06-58.15c0-.81,.41-1.21,1.24-1.21l7.86,.02c.82,0,1.24,.41,1.23,1.22l-.06,58.16h0Z"/><path class="cls-2" d="M239.98,61.46l-6.57-58.17c-.12-.81-.59-1.21-1.41-1.22l-11.66-.04c-.83,0-1.3,.4-1.41,1.21l-6.68,58.13c-.12,.81,.23,1.21,1.06,1.22l8.04,.02c.77,0,1.21-.4,1.33-1.21l.72-9.34,5.48,.02,.7,9.35c.12,.81,.56,1.21,1.32,1.22l8.04,.02c.82,0,1.18-.4,1.06-1.21Zm-15.88-19.09l1.7-23.45h.71l1.65,23.46h-4.06Z"/></g><rect id="_スライス_" class="cls-1" width="240" height="64"/></g></g></svg>