<?xml version="1.0" encoding="UTF-8"?>
<svg id="night" xmlns="http://www.w3.org/2000/svg" xmlns:xlink="http://www.w3.org/1999/xlink" viewBox="0 0 660 360">
  <defs>
    <style>
      .cls-1 {
        stroke: #0071bb;
      }

      .cls-1, .cls-2, .cls-3, .cls-4, .cls-5 {
        fill: none;
      }

      .cls-1, .cls-2, .cls-4, .cls-5 {
        stroke-linejoin: round;
      }

      .cls-1, .cls-4, .cls-5 {
        stroke-linecap: round;
      }

      .cls-6 {
        fill: url(#_称未設定グラデーション_13);
      }

      .cls-6, .cls-7 {
        opacity: .5;
      }

      .cls-7 {
        fill: url(#_称未設定グラデーション_14);
      }

      .cls-8 {
        fill: #f9e000;
      }

      .cls-9 {
        fill: #004d80;
      }

      .cls-10 {
        fill: #005c99;
      }

      .cls-11 {
        fill: #008ae6;
      }

      .cls-12 {
        fill: #0071bb;
      }

      .cls-13 {
        fill: #fff;
      }

      .cls-14 {
        fill: #f1f1f1;
      }

      .cls-15 {
        fill: #ef4753;
      }

      .cls-16 {
        fill: #80caff;
      }

      .cls-17 {
        fill: #d22c49;
      }

      .cls-18 {
        fill: #359ee6;
      }

      .cls-19 {
        fill: #3ba8f2;
      }

      .cls-2 {
        stroke-width: 3px;
      }

      .cls-2, .cls-3 {
        stroke: #004d80;
      }

      .cls-3 {
        stroke-linecap: square;
        stroke-miterlimit: 10;
        stroke-width: 4px;
      }

      .cls-4 {
        stroke: #fff;
      }

      .cls-4, .cls-5 {
        stroke-width: 1.64px;
      }

      .cls-5 {
        stroke: #b2b2b2;
      }
    </style>
    <linearGradient id="_称未設定グラデーション_14" data-name="名称未設定グラデーション 14" x1="500" y1="224" x2="660" y2="224" gradientTransform="matrix(1, 0, 0, 1, 0, 0)" gradientUnits="userSpaceOnUse">
      <stop offset="0" stop-color="#f9e000"/>
      <stop offset=".5" stop-color="#f9e000"/>
      <stop offset="1" stop-color="#f9e000" stop-opacity="0"/>
    </linearGradient>
    <linearGradient id="_称未設定グラデーション_13" data-name="名称未設定グラデーション 13" x1="340" y1="224" x2="500" y2="224" gradientTransform="matrix(1, 0, 0, 1, 0, 0)" gradientUnits="userSpaceOnUse">
      <stop offset="0" stop-color="#f9e000" stop-opacity="0"/>
      <stop offset=".5" stop-color="#f9e000"/>
      <stop offset="1" stop-color="#f9e000"/>
    </linearGradient>
  </defs>
  <g id="background">
    <rect id="night-2" data-name="night" class="cls-12" width="660" height="360"/>
    <path class="cls-9" d="M475.98,135.08l-128.98,224.92h310l-128.98-224.92c-11.53-20.11-40.5-20.11-52.04,0Z"/>
    <path class="cls-10" d="M379.09,224.28l-79.09,135.72h210l-79.09-135.72c-11.58-19.87-40.25-19.87-51.83,0Z"/>
    <circle class="cls-13" cx="292" cy="57" r="2"/>
    <circle class="cls-13" cx="209" cy="111" r="2"/>
    <circle class="cls-13" cx="28" cy="73" r="2"/>
    <circle class="cls-13" cx="501" cy="91" r="2"/>
    <circle class="cls-13" cx="641" cy="73" r="2"/>
    <circle class="cls-13" cx="413" cy="24" r="2"/>
  </g>
  <g id="starts">
    <polygon id="star3" class="cls-8" points="410 70 413.09 76.26 420 77.27 415 82.14 416.18 89.02 410 85.77 403.82 89.02 405 82.14 400 77.27 406.91 76.26 410 70"/>
    <polygon id="star2" class="cls-8" points="594 29 597.09 35.26 604 36.27 599 41.14 600.18 48.02 594 44.77 587.82 48.02 589 41.14 584 36.27 590.91 35.26 594 29"/>
    <polygon id="star1" class="cls-8" points="210 20 213.09 26.26 220 27.27 215 32.14 216.18 39.02 210 35.77 203.82 39.02 205 32.14 200 27.27 206.91 26.26 210 20"/>
  </g>
  <g id="clouds">
    <path id="Cloud3" class="cls-19" d="M612.68,167.54c-.45,0-.9,.03-1.34,.07-.67-9.38-8.55-16.79-18.18-16.79-.43,0-.85,.02-1.27,.04-4.39-6.55-11.9-10.87-20.43-10.87-13.25,0-24.04,10.43-24.5,23.47-6.8,1.18-11.96,7.07-11.96,14.16,0,7.94,6.48,14.38,14.48,14.38,.09,0,.17,0,.26,0h62.95c6.8,0,12.32-5.47,12.32-12.23s-5.51-12.23-12.32-12.23Z"/>
    <path id="Cloud2" class="cls-19" d="M545.23,47.88c.03-.42,.07-.85,.07-1.28,0-9.17-7.59-16.6-16.96-16.6-7.52,0-13.89,4.8-16.11,11.44-6.94,1.15-12.22,7.05-12.22,14.17,0,7.95,6.58,14.39,14.7,14.39,.09,0,.17-.01,.26-.01,.09,0,.17,.01,.26,.01h29.57c6.19,0,11.22-4.92,11.22-10.98v-.17c0-5.92-4.79-10.73-10.77-10.96Z"/>
    <path id="Cloud1" class="cls-19" d="M377.68,117.54c-.45,0-.9,.03-1.34,.07-.67-9.38-8.55-16.79-18.18-16.79-.43,0-.85,.02-1.27,.04-4.39-6.55-11.9-10.87-20.43-10.87-13.25,0-24.04,10.43-24.5,23.47-6.8,1.18-11.96,7.07-11.96,14.16,0,7.94,6.48,14.38,14.48,14.38,.09,0,.17,0,.26,0h62.95c6.8,0,12.32-5.47,12.32-12.23s-5.51-12.23-12.32-12.23Z"/>
  </g>
  <g id="moon">
    <circle class="cls-12" cx="85" cy="85" r="55"/>
    <path class="cls-8" d="M85,30c-7.44,0-14.53,1.48-21,4.16,19.96,8.25,34,27.9,34,50.84s-14.04,42.59-34,50.84c6.47,2.68,13.56,4.16,21,4.16,30.38,0,55-24.62,55-55s-24.62-55-55-55Z"/>
  </g>
  <g id="lighthouse">
    <polygon id="backlight" class="cls-7" points="510 217 660 197 660 251 510 231 500 231 500 217 510 217"/>
    <path id="_パス_" data-name="&amp;lt;パス&amp;gt;" class="cls-18" d="M509,232h-18l-4,50h26l-4-50Zm-6.59,25.73h-4.82v-6h4.82v6Zm0-12h-4.82v-6h4.82v6Z"/>
    <polygon id="_パス_-2" data-name="&amp;lt;パス&amp;gt;" class="cls-8" points="509 217 500 217 491 217 491 231 500 231 509 231 509 217"/>
    <rect id="_パス_-3" data-name="&amp;lt;パス&amp;gt;" class="cls-18" x="486" y="231" width="28" height="3"/>
    <path class="cls-18" d="M501,208.06v-2.06h-2v2.06c-4.5,.5-8,4.31-8,8.94h18c0-4.63-3.5-8.44-8-8.94Z"/>
    <polygon id="frontlight" class="cls-6" points="490 217 340 197 340 251 490 231 500 231 500 217 490 217"/>
    <polygon class="cls-18" points="486 225 486 234 488 234 488 227 492.5 227 492.5 234 494.5 234 494.5 227 499 227 499 234 501 234 501 227 505.5 227 505.5 234 507.5 234 507.5 227 512 227 512 234 514 234 514 225 486 225"/>
  </g>
  <path id="hill" class="cls-12" d="M409.48,329.77l-17.48,29.97h210l-17.48-29.97c-39.1-67.02-135.94-67.02-175.03,0Z"/>
  <g id="trees">
    <g id="tree4">
      <path class="cls-11" d="M562.31,293.48c0-8.36-6-21.96-12.67-21.96s-12.67,13.6-12.67,21.96c0,8.36,5.67,13.94,12.67,13.94s12.67-5.58,12.67-13.94Z"/>
      <line class="cls-2" x1="549.59" y1="291.64" x2="549.59" y2="316.81"/>
    </g>
    <g id="tree3">
      <path class="cls-11" d="M529.68,302.92c0-8.36-6-21.96-12.67-21.96-6.68,0-12.67,13.6-12.67,21.96,0,8.36,5.67,13.94,12.67,13.94s12.67-5.58,12.67-13.94Z"/>
      <line class="cls-2" x1="516.96" y1="301.08" x2="516.96" y2="326.25"/>
    </g>
    <g id="tree2">
      <path class="cls-11" d="M491.66,277.81c0-8.36-6-21.96-12.67-21.96s-12.67,13.6-12.67,21.96c0,8.36,5.67,13.94,12.67,13.94s12.67-5.58,12.67-13.94Z"/>
      <line class="cls-2" x1="478.94" y1="275.97" x2="478.94" y2="301.14"/>
    </g>
    <g id="tree1">
      <path class="cls-11" d="M459.04,287.25c0-8.36-6-21.96-12.67-21.96s-12.67,13.6-12.67,21.96c0,8.36,5.67,13.94,12.67,13.94,7,0,12.67-5.58,12.67-13.94Z"/>
      <line class="cls-2" x1="446.32" y1="285.41" x2="446.32" y2="310.58"/>
    </g>
  </g>
  <g id="fish">
    <path class="cls-16" d="M348.16,296.96c-2.99,.59-6.11,2.4-8.12,5.43,1.95,2.86,4.78,4.62,7.72,5.33,.59,.14,1.15-.37,.92-.94-1.18-2.94-1.07-6.06,.25-8.92,.24-.52-.22-1.01-.77-.9Z"/>
    <path class="cls-19" d="M325.65,294.66c-8.08-.86-13.82,2.2-16.39,5.7-.36,.49-.16,1.18,.38,1.43l3.03,1.41-2.19,.95c-.54,.24-.69,.95-.28,1.37,2.9,2.96,8.24,5.26,15.45,4.61,8.39-.76,14.31-4.27,16.6-6.54,.67-.66,.67-1.72,0-2.38-2.28-2.24-8.15-5.64-16.59-6.54Z"/>
    <circle class="cls-13" cx="316.16" cy="300.18" r="2"/>
    <circle class="cls-10" cx="316.16" cy="300.18" r="1"/>
    <path class="cls-19" d="M322.5,294.75c.56-1.44,1.97-2.84,3.74-2.62,4.72,.57,5.93,4.29,5.93,4.29l-9.67-1.67Z"/>
    <path class="cls-16" d="M310.47,304.16c-.54,.24-.69,.95-.28,1.37,2.9,2.96,8.24,5.26,15.45,4.61,8.39-.76,14.31-4.27,16.6-6.54,.12-.12,.21-.25,.28-.38h-29.86l-2.19,.95Z"/>
    <path class="cls-1" d="M322,297.68c3.25,1.73,3.12,7.14,0,9.18"/>
    <path class="cls-19" d="M325.03,309.82c1.36,1.48,3.29,2.32,5.71,2.62,.89,.11,1.6-.71,1.34-1.57l-.79-2.6c-.09-.3-.29-.56-.58-.69-1.96-.85-4.31-.13-5.66,1.39-.22,.24-.24,.61-.02,.85Z"/>
  </g>
  <g id="ship">
    <path class="cls-15" d="M185,322.74h-47.35v-84.33c19.21,25.07,34.67,53.47,47.35,84.33Z"/>
    <polygon class="cls-17" points="105.14 326.34 137.65 316.09 137.65 238 105.14 326.34"/>
    <line class="cls-4" x1="137.65" y1="238.41" x2="137.65" y2="335.93"/>
    <path class="cls-14" d="M142.87,342h24.43c6.63,0,11.75-4.66,13.35-11.19,.51-2.08-1.03-4.1-3.18-4.1H108.28c-2.15,0-3.69,2.02-3.18,4.1,1.6,6.53,6.72,11.19,13.35,11.19h24.43Z"/>
    <line class="cls-5" x1="105.1" y1="330.81" x2="180.64" y2="330.81"/>
  </g>
  <g id="bads">
    <g id="bad1">
      <line id="rightwing" class="cls-3" x1="76.45" y1="255.21" x2="81.45" y2="252.21"/>
      <line id="leftwing" class="cls-3" x1="71.45" y1="252.21" x2="76.45" y2="255.21"/>
    </g>
    <g id="bad2">
      <line id="rightwing-2" data-name="rightwing" class="cls-3" x1="96.45" y1="275.21" x2="101.45" y2="272.21"/>
      <line id="leftwing-2" data-name="leftwing" class="cls-3" x1="91.45" y1="272.21" x2="96.45" y2="275.21"/>
    </g>
    <g id="bad3">
      <line id="rightwing-3" data-name="rightwing" class="cls-3" x1="86.45" y1="295.21" x2="91.45" y2="292.21"/>
      <line id="leftwing-3" data-name="leftwing" class="cls-3" x1="81.45" y1="292.21" x2="86.45" y2="295.21"/>
    </g>
    <g id="bad4">
      <line id="rightwing-4" data-name="rightwing" class="cls-3" x1="176.45" y1="255.21" x2="181.45" y2="252.21"/>
      <line id="leftwing-4" data-name="leftwing" class="cls-3" x1="171.45" y1="252.21" x2="176.45" y2="255.21"/>
    </g>
    <g id="bad5">
      <line id="rightwing-5" data-name="rightwing" class="cls-3" x1="196.45" y1="285.21" x2="201.45" y2="282.21"/>
      <line id="leftwing-5" data-name="leftwing" class="cls-3" x1="191.45" y1="282.21" x2="196.45" y2="285.21"/>
    </g>
    <g id="bad6">
      <line id="rightwing-6" data-name="rightwing" class="cls-3" x1="216.45" y1="295.21" x2="221.45" y2="292.21"/>
      <line id="leftwing-6" data-name="leftwing" class="cls-3" x1="211.45" y1="292.21" x2="216.45" y2="295.21"/>
    </g>
  </g>
  <path id="wave" class="cls-11" d="M660,339c-4.85,0-4.85-4-9.71-4s-4.85,4-9.7,4-4.85-4-9.71-4-4.85,4-9.7,4-4.85-4-9.71-4-4.85,4-9.7,4-4.85-4-9.71-4-4.85,4-9.7,4-4.85-4-9.71-4-4.85,4-9.7,4-4.85-4-9.71-4-4.85,4-9.7,4-4.85-4-9.71-4-4.85,4-9.7,4-4.85-4-9.71-4-4.85,4-9.7,4-4.85-4-9.71-4-4.85,4-9.7,4-4.85-4-9.71-4-4.85,4-9.7,4-4.85-4-9.71-4-4.85,4-9.7,4-4.85-4-9.71-4-4.85,4-9.7,4-4.85-4-9.71-4-4.85,4-9.7,4-4.85-4-9.71-4-4.85,4-9.7,4-4.85-4-9.71-4-4.85,4-9.7,4-4.85-4-9.71-4-4.85,4-9.7,4-4.85-4-9.71-4-4.85,4-9.7,4-4.85-4-9.71-4-4.85,4-9.7,4-4.85-4-9.71-4-4.85,4-9.7,4-4.85-4-9.71-4-4.85,4-9.7,4-4.85-4-9.71-4-4.85,4-9.7,4-4.85-4-9.71-4-4.85,4-9.7,4-4.85-4-9.71-4-4.85,4-9.7,4-4.85-4-9.71-4-4.85,4-9.7,4-4.85-4-9.71-4-4.85,4-9.7,4-4.85-4-9.71-4-4.85,4-9.7,4-4.85-4-9.71-4-4.85,4-9.7,4-4.85-4-9.71-4-4.85,4-9.7,4-4.85-4-9.71-4-4.85,4-9.7,4-4.85-4-9.71-4-4.85,4-9.7,4-4.85-4-9.71-4-4.85,4-9.7,4-4.85-4-9.71-4-4.85,4-9.7,4-4.85-4-9.71-4-4.85,4-9.7,4-4.85-4-9.71-4S4.85,339,0,339s-4.85-4-9.71-4-4.85,4-9.7,4v21H660v-21Z"/>
</svg>