<?xml version="1.0" encoding="UTF-8"?><svg id="_イヤー_2" xmlns="http://www.w3.org/2000/svg" viewBox="0 0 110 110"><defs><style>.cls-1{fill:#f9e000;}.cls-2{fill:#f05a24;}</style></defs><g id="_イヤー_1-2"><g><circle class="cls-2" cx="55" cy="55" r="29.62"/><rect class="cls-1" x="45.95" y="91.9" width="18.1" height="18.1"/><rect class="cls-1" x="68.92" y="85.74" width="18.1" height="18.1" transform="translate(-36.95 51.69) rotate(-30)"/><rect class="cls-1" x="85.74" y="68.92" width="18.1" height="18.1" transform="translate(-20.13 121.08) rotate(-60)"/><rect class="cls-1" x="91.9" y="45.95" width="18.1" height="18.1" transform="translate(45.95 155.95) rotate(-90)"/><rect class="cls-1" x="85.74" y="22.97" width="18.1" height="18.1" transform="translate(114.46 130.13) rotate(-120)"/><rect class="cls-1" x="68.92" y="6.16" width="18.1" height="18.1" transform="translate(137.9 67.36) rotate(-150)"/><rect class="cls-1" x="45.95" y="0" width="18.1" height="18.1" transform="translate(110 18.1) rotate(-180)"/><rect class="cls-1" x="22.97" y="6.16" width="18.1" height="18.1" transform="translate(67.36 12.36) rotate(150)"/><rect class="cls-1" x="6.16" y="22.97" width="18.1" height="18.1" transform="translate(50.54 34.87) rotate(120)"/><rect class="cls-1" x="0" y="45.95" width="18.1" height="18.1" transform="translate(64.05 45.95) rotate(90)"/><rect class="cls-1" x="6.16" y="68.92" width="18.1" height="18.1" transform="translate(75.13 25.82) rotate(60)"/><rect class="cls-1" x="22.97" y="85.74" width="18.1" height="18.1" transform="translate(51.69 -3.31) rotate(30)"/></g></g></svg>