<?xml version="1.0" encoding="UTF-8"?><svg id="_イヤー_2" xmlns="http://www.w3.org/2000/svg" viewBox="0 0 210 125"><defs><style>.cls-1{fill:#fff;}</style></defs><g id="_イヤー_1-2"><path class="cls-1" d="M181.26,66.21c-1.06,0-2.1,.06-3.13,.18-1.57-22.56-19.96-40.35-42.41-40.35-1,0-1.99,.04-2.97,.11C122.5,10.38,104.98,0,85.09,0,54.18,0,29.01,25.07,27.91,56.41,12.05,59.25,0,73.41,0,90.44c0,19.09,15.13,34.56,33.78,34.56,.2,0,.4,0,.6,0H181.26c15.87,0,28.74-13.15,28.74-29.39s-12.87-29.4-28.74-29.4Z"/></g></svg>