<?xml version="1.0" encoding="UTF-8"?><svg id="_イヤー_2" xmlns="http://www.w3.org/2000/svg" viewBox="0 0 357 240"><defs><style>.cls-1{fill:#8bc53f;}.cls-2{fill:#226674;}.cls-3{fill:#1a7c87;}.cls-4{fill:#3ea347;}.cls-5{fill:none;stroke:#e0a554;stroke-linejoin:round;stroke-width:3px;}</style></defs><g id="_イヤー_1-2"><g><path class="cls-2" d="M175.98,15.08L47,240H357L228.02,15.08c-11.53-20.11-40.5-20.11-52.04,0Z"/><path class="cls-3" d="M79.09,104.28L0,240H210L130.91,104.28c-11.58-19.87-40.25-19.87-51.83,0Z"/><path class="cls-1" d="M109.48,209.77l-17.48,29.97h210l-17.48-29.97c-39.1-67.02-135.94-67.02-175.03,0Z"/><g><g><g><path class="cls-4" d="M157.04,167.25c0-8.36-6-21.96-12.67-21.96s-12.67,13.6-12.67,21.96c0,8.36,5.67,13.94,12.67,13.94s12.67-5.58,12.67-13.94Z"/><line class="cls-5" x1="144.32" y1="165.41" x2="144.32" y2="190.58"/></g><g><path class="cls-4" d="M189.66,157.81c0-8.36-6-21.96-12.67-21.96s-12.67,13.6-12.67,21.96c0,8.36,5.67,13.94,12.67,13.94s12.67-5.58,12.67-13.94Z"/><line class="cls-5" x1="176.94" y1="155.97" x2="176.94" y2="181.14"/></g></g><g><g><path class="cls-4" d="M229.68,182.92c0-8.36-6-21.96-12.67-21.96s-12.67,13.6-12.67,21.96c0,8.36,5.67,13.94,12.67,13.94s12.67-5.58,12.67-13.94Z"/><line class="cls-5" x1="216.96" y1="181.08" x2="216.96" y2="206.25"/></g><g><path class="cls-4" d="M262.31,173.48c0-8.36-6-21.96-12.67-21.96s-12.67,13.6-12.67,21.96c0,8.36,5.67,13.94,12.67,13.94s12.67-5.58,12.67-13.94Z"/><line class="cls-5" x1="249.59" y1="171.64" x2="249.59" y2="196.81"/></g></g></g></g></g></svg>