<?xml version="1.0" encoding="UTF-8"?><svg id="_イヤー_2" xmlns="http://www.w3.org/2000/svg" viewBox="0 0 990 25"><defs><style>.cls-1{fill:#089fb6;}</style></defs><g id="_イヤー_2-2"><g><g><path class="cls-1" d="M19.41,4C14.56,4,14.56,0,9.7,0S4.85,4,0,4V25H19.41V4Z"/><path class="cls-1" d="M38.82,4c-4.85,0-4.85-4-9.71-4s-4.85,4-9.7,4V25h19.41V4Z"/><path class="cls-1" d="M58.24,4c-4.85,0-4.85-4-9.71-4s-4.85,4-9.7,4V25h19.41V4Z"/><path class="cls-1" d="M77.65,4c-4.85,0-4.85-4-9.71-4s-4.85,4-9.7,4V25h19.41V4Z"/><path class="cls-1" d="M97.06,4c-4.85,0-4.85-4-9.71-4s-4.85,4-9.7,4V25h19.41V4Z"/><path class="cls-1" d="M116.47,4c-4.85,0-4.85-4-9.71-4s-4.85,4-9.7,4V25h19.41V4Z"/><path class="cls-1" d="M135.88,4c-4.85,0-4.85-4-9.71-4s-4.85,4-9.7,4V25h19.41V4Z"/><path class="cls-1" d="M155.29,4c-4.85,0-4.85-4-9.71-4s-4.85,4-9.7,4V25h19.41V4Z"/><path class="cls-1" d="M174.71,4c-4.85,0-4.85-4-9.71-4s-4.85,4-9.7,4V25h19.41V4Z"/><path class="cls-1" d="M194.12,4c-4.85,0-4.85-4-9.71-4s-4.85,4-9.7,4V25h19.41V4Z"/><path class="cls-1" d="M213.53,4c-4.85,0-4.85-4-9.71-4s-4.85,4-9.7,4V25h19.41V4Z"/><path class="cls-1" d="M232.94,4c-4.85,0-4.85-4-9.71-4s-4.85,4-9.7,4V25h19.41V4Z"/><path class="cls-1" d="M252.35,4c-4.85,0-4.85-4-9.71-4s-4.85,4-9.7,4V25h19.41V4Z"/><path class="cls-1" d="M271.76,4c-4.85,0-4.85-4-9.71-4s-4.85,4-9.7,4V25h19.41V4Z"/><path class="cls-1" d="M291.18,4c-4.85,0-4.85-4-9.71-4s-4.85,4-9.7,4V25h19.41V4Z"/><path class="cls-1" d="M310.59,4c-4.85,0-4.85-4-9.71-4s-4.85,4-9.7,4V25h19.41V4Z"/><path class="cls-1" d="M330,4c-4.85,0-4.85-4-9.71-4s-4.85,4-9.7,4V25h19.41V4Z"/></g><g><path class="cls-1" d="M349.41,4c-4.85,0-4.85-4-9.71-4s-4.85,4-9.7,4V25h19.41V4Z"/><path class="cls-1" d="M368.82,4c-4.85,0-4.85-4-9.71-4s-4.85,4-9.7,4V25h19.41V4Z"/><path class="cls-1" d="M388.24,4c-4.85,0-4.85-4-9.71-4s-4.85,4-9.7,4V25h19.41V4Z"/><path class="cls-1" d="M407.65,4c-4.85,0-4.85-4-9.71-4s-4.85,4-9.7,4V25h19.41V4Z"/><path class="cls-1" d="M427.06,4c-4.85,0-4.85-4-9.71-4s-4.85,4-9.7,4V25h19.41V4Z"/><path class="cls-1" d="M446.47,4c-4.85,0-4.85-4-9.71-4s-4.85,4-9.7,4V25h19.41V4Z"/><path class="cls-1" d="M465.88,4c-4.85,0-4.85-4-9.71-4s-4.85,4-9.7,4V25h19.41V4Z"/><path class="cls-1" d="M485.29,4c-4.85,0-4.85-4-9.71-4s-4.85,4-9.7,4V25h19.41V4Z"/><path class="cls-1" d="M504.71,4c-4.85,0-4.85-4-9.71-4s-4.85,4-9.7,4V25h19.41V4Z"/><path class="cls-1" d="M524.12,4c-4.85,0-4.85-4-9.71-4s-4.85,4-9.7,4V25h19.41V4Z"/><path class="cls-1" d="M543.53,4c-4.85,0-4.85-4-9.71-4s-4.85,4-9.7,4V25h19.41V4Z"/><path class="cls-1" d="M562.94,4c-4.85,0-4.85-4-9.71-4s-4.85,4-9.7,4V25h19.41V4Z"/><path class="cls-1" d="M582.35,4c-4.85,0-4.85-4-9.71-4s-4.85,4-9.7,4V25h19.41V4Z"/><path class="cls-1" d="M601.76,4c-4.85,0-4.85-4-9.71-4s-4.85,4-9.7,4V25h19.41V4Z"/><path class="cls-1" d="M621.18,4c-4.85,0-4.85-4-9.71-4s-4.85,4-9.7,4V25h19.41V4Z"/><path class="cls-1" d="M640.59,4c-4.85,0-4.85-4-9.71-4s-4.85,4-9.7,4V25h19.41V4Z"/><path class="cls-1" d="M660,4c-4.85,0-4.85-4-9.71-4s-4.85,4-9.7,4V25h19.41V4Z"/></g><g><path class="cls-1" d="M679.41,4c-4.85,0-4.85-4-9.71-4s-4.85,4-9.7,4V25h19.41V4Z"/><path class="cls-1" d="M698.82,4c-4.85,0-4.85-4-9.71-4s-4.85,4-9.7,4V25h19.41V4Z"/><path class="cls-1" d="M718.24,4c-4.85,0-4.85-4-9.71-4s-4.85,4-9.7,4V25h19.41V4Z"/><path class="cls-1" d="M737.65,4c-4.85,0-4.85-4-9.71-4s-4.85,4-9.7,4V25h19.41V4Z"/><path class="cls-1" d="M757.06,4c-4.85,0-4.85-4-9.71-4s-4.85,4-9.7,4V25h19.41V4Z"/><path class="cls-1" d="M776.47,4c-4.85,0-4.85-4-9.71-4s-4.85,4-9.7,4V25h19.41V4Z"/><path class="cls-1" d="M795.88,4c-4.85,0-4.85-4-9.71-4s-4.85,4-9.7,4V25h19.41V4Z"/><path class="cls-1" d="M815.29,4c-4.85,0-4.85-4-9.71-4s-4.85,4-9.7,4V25h19.41V4Z"/><path class="cls-1" d="M834.71,4c-4.85,0-4.85-4-9.71-4s-4.85,4-9.7,4V25h19.41V4Z"/><path class="cls-1" d="M854.12,4c-4.85,0-4.85-4-9.71-4s-4.85,4-9.7,4V25h19.41V4Z"/><path class="cls-1" d="M873.53,4c-4.85,0-4.85-4-9.71-4s-4.85,4-9.7,4V25h19.41V4Z"/><path class="cls-1" d="M892.94,4c-4.85,0-4.85-4-9.71-4s-4.85,4-9.7,4V25h19.41V4Z"/><path class="cls-1" d="M912.35,4c-4.85,0-4.85-4-9.71-4s-4.85,4-9.7,4V25h19.41V4Z"/><path class="cls-1" d="M931.76,4c-4.85,0-4.85-4-9.71-4s-4.85,4-9.7,4V25h19.41V4Z"/><path class="cls-1" d="M951.18,4c-4.85,0-4.85-4-9.71-4s-4.85,4-9.7,4V25h19.41V4Z"/><path class="cls-1" d="M970.59,4c-4.85,0-4.85-4-9.71-4s-4.85,4-9.7,4V25h19.41V4Z"/><path class="cls-1" d="M990,4c-4.85,0-4.85-4-9.71-4s-4.85,4-9.7,4V25h19.41V4Z"/></g></g></g></svg>